<svg width="200" height="45" viewBox="0 0 200 45" fill="none" xmlns="http://www.w3.org/2000/svg">
<g clip-path="url(#clip0_2804_234)">
<path d="M167.73 11.11C167.49 11.82 167.19 12.73 166.82 13.86C166.45 14.99 166.04 16.23 165.6 17.58C165.15 18.93 164.69 20.36 164.22 21.88C163.74 23.39 163.26 24.87 162.77 26.31C162.28 27.75 161.8 29.12 161.32 30.43C160.84 31.74 160.41 32.88 160.03 33.85C159.91 34.09 159.67 34.27 159.3 34.4C158.93 34.53 158.34 34.6 157.54 34.6C157.03 34.6 156.52 34.57 155.98 34.51C155.45 34.45 154.95 34.33 154.49 34.16C154.03 33.98 153.63 33.75 153.29 33.45C152.95 33.16 152.69 32.79 152.51 32.35C152.06 30.85 151.64 29.18 151.24 27.35C150.84 25.51 150.45 23.64 150.06 21.73C149.67 19.82 149.3 17.95 148.93 16.11C148.56 14.27 148.18 12.61 147.79 11.11C147.79 11.52 147.77 12.23 147.75 13.23C147.72 14.23 147.69 15.39 147.66 16.71C147.63 18.03 147.59 19.46 147.55 20.98C147.51 22.51 147.47 24 147.44 25.45C147.41 26.9 147.38 28.26 147.35 29.5C147.32 30.75 147.31 31.77 147.31 32.56C147.31 33.44 147.26 34 147.15 34.23C147.05 34.47 146.86 34.58 146.59 34.58H144.14C142.45 34.58 141.25 34.25 140.56 33.59C139.86 32.93 139.51 31.95 139.51 30.66C139.51 30.31 139.53 29.71 139.58 28.88C139.62 28.04 139.69 27.05 139.78 25.91C139.87 24.76 139.97 23.51 140.07 22.14C140.17 20.77 140.28 19.39 140.4 17.98C140.55 16.07 140.67 14.48 140.78 13.2C140.88 11.92 140.97 10.86 141.02 10C141.08 9.15004 141.13 8.46004 141.18 7.93004C141.23 7.40004 141.25 6.93004 141.27 6.52004C141.28 6.11004 141.3 5.72004 141.31 5.35004C141.32 4.98004 141.33 4.52004 141.33 3.96004C141.33 3.73004 141.42 3.56004 141.6 3.45004C141.78 3.35004 141.94 3.30004 142.09 3.30004H148.32C149.48 3.30004 150.43 3.48004 151.17 3.85004C151.91 4.22004 152.52 4.78004 153 5.55004C153.47 6.31004 153.86 7.31004 154.16 8.52004C154.46 9.74004 154.73 11.19 154.98 12.86C155.23 14.53 155.51 16.47 155.83 18.66C156.14 20.85 156.55 23.31 157.05 26.04C157.52 24.22 157.92 22.71 158.25 21.5C158.58 20.3 158.85 19.29 159.07 18.48C159.29 17.67 159.48 17 159.63 16.47C159.78 15.94 159.91 15.45 160.03 14.99C160.15 14.53 160.28 14.04 160.43 13.51C160.58 12.98 160.76 12.32 160.96 11.53C161.17 10.74 161.43 9.75004 161.74 8.56004C162.05 7.37004 162.44 5.86004 162.92 4.04004C162.98 3.86004 163.08 3.70004 163.23 3.53004C163.38 3.37004 163.65 3.29004 164.03 3.29004H170.97C171.92 3.29004 172.68 3.39004 173.26 3.58004C173.84 3.77004 174.29 4.04004 174.62 4.40004C174.95 4.75004 175.17 5.19004 175.29 5.70004C175.41 6.21004 175.47 6.81004 175.47 7.48004C175.47 8.15004 175.43 9.25004 175.36 10.76C175.29 12.27 175.18 13.98 175.05 15.87C174.92 17.77 174.78 19.73 174.65 21.75C174.52 23.78 174.38 25.66 174.25 27.39C174.12 29.12 174.01 30.59 173.92 31.8C173.83 33.01 173.77 33.71 173.74 33.92C173.71 34.16 173.65 34.32 173.56 34.43C173.47 34.53 173.29 34.58 173.03 34.58H170.58C168.89 34.58 167.69 34.25 167 33.59C166.3 32.93 165.95 32.07 165.95 31.01C165.95 30.69 165.99 30.1 166.06 29.25C166.13 28.4 166.23 27.4 166.35 26.25C166.47 25.1 166.6 23.85 166.75 22.48C166.9 21.11 167.03 19.76 167.15 18.4C167.27 17.05 167.38 15.73 167.48 14.46C167.58 13.18 167.67 12.06 167.72 11.09L167.73 11.11Z" fill="#A70400"/>
<path d="M194.97 34.6C193.43 34.6 192.32 34.28 191.65 33.65C190.98 33.02 190.62 32.23 190.56 31.29C190.23 32.29 189.54 33.16 188.49 33.91C187.44 34.66 185.92 35.03 183.93 35.03C182.77 35.03 181.64 34.8 180.55 34.35C179.45 33.89 178.47 33.14 177.61 32.08C176.75 31.02 176.06 29.61 175.54 27.85C175.02 26.09 174.76 23.9 174.76 21.28C174.76 20.28 174.82 19.13 174.94 17.82C175.06 16.51 175.3 15.18 175.67 13.81C176.04 12.44 176.57 11.11 177.27 9.79999C177.97 8.48999 178.89 7.32999 180.03 6.29999C181.17 5.26999 182.57 4.43999 184.24 3.80999C185.9 3.17999 187.89 2.85999 190.2 2.85999C191.71 2.85999 193.07 3.01999 194.27 3.33999C195.47 3.65999 196.5 4.11999 197.34 4.70999C198.19 5.29999 198.84 6.01999 199.3 6.86999C199.76 7.71999 199.99 8.67999 199.99 9.72999C199.99 11.43 199.43 12.72 198.3 13.59C197.17 14.46 195.58 14.89 193.54 14.89C192.89 14.89 192.49 14.84 192.36 14.74C192.23 14.64 192.14 14.42 192.12 14.1C192.06 13.57 192.02 13.04 192.01 12.51C191.99 11.98 191.92 11.5 191.79 11.06C191.66 10.62 191.43 10.27 191.1 9.99999C190.77 9.73999 190.25 9.59999 189.54 9.59999C188.09 9.59999 186.93 10.01 186.07 10.83C185.21 11.65 184.56 12.65 184.11 13.83C183.66 15.01 183.38 16.22 183.26 17.47C183.14 18.72 183.08 19.77 183.08 20.62C183.08 22.03 183.17 23.21 183.35 24.17C183.53 25.13 183.79 25.9 184.13 26.51C184.47 27.11 184.88 27.54 185.35 27.79C185.82 28.04 186.37 28.16 187 28.16C188.13 28.16 189.08 27.93 189.85 27.45C190.62 26.98 191.08 26.13 191.23 24.89L191.5 22.42C191.59 21.57 191.71 20.87 191.86 20.33C192.01 19.79 192.36 19.51 192.93 19.51H195.38C196.12 19.51 196.72 19.59 197.18 19.75C197.64 19.91 198 20.18 198.25 20.54C198.5 20.91 198.67 21.38 198.76 21.97C198.85 22.56 198.89 23.28 198.89 24.13C198.89 24.72 198.87 25.5 198.82 26.47C198.78 27.44 198.72 28.42 198.64 29.42C198.57 30.42 198.48 31.34 198.4 32.17C198.31 33.01 198.24 33.59 198.18 33.91C198.12 34.17 198.05 34.35 197.96 34.44C197.87 34.53 197.69 34.57 197.43 34.57H194.98L194.97 34.6Z" fill="#A70400"/>
<path d="M168.65 33.05C166.76 33.05 165.44 32.67 164.61 31.88C163.78 31.09 163.36 30.06 163.36 28.82C163.36 28.47 163.4 27.88 163.47 27C163.54 26.16 163.64 25.14 163.76 23.99C163.88 22.84 164.01 21.59 164.16 20.22C164.31 18.87 164.44 17.5 164.56 16.16C164.62 15.52 164.67 14.89 164.72 14.27C164.58 14.7 164.43 15.14 164.29 15.59C163.84 16.97 163.37 18.41 162.91 19.88C162.43 21.41 161.94 22.9 161.46 24.32C160.98 25.74 160.49 27.13 160.01 28.45C159.54 29.75 159.1 30.91 158.71 31.88V31.91L158.69 31.94C158.49 32.33 158.12 32.62 157.59 32.82C157.14 32.98 156.49 33.06 155.61 33.06C155.08 33.06 154.53 33.03 153.98 32.97C153.39 32.91 152.84 32.77 152.32 32.58C151.79 32.38 151.32 32.1 150.92 31.76C150.5 31.4 150.18 30.94 149.96 30.41V30.38L149.94 30.35C149.49 28.84 149.06 27.14 148.66 25.3C148.26 23.45 147.86 21.55 147.48 19.67L146.39 14.28C146.39 14.36 146.39 14.45 146.39 14.53C146.36 15.85 146.32 17.28 146.28 18.81C146.23 20.37 146.2 21.87 146.17 23.28C146.14 24.74 146.11 26.09 146.08 27.34C146.05 28.57 146.04 29.6 146.04 30.39C146.04 31.68 145.93 32.09 145.83 32.33C145.62 32.81 145.2 33.08 144.67 33.08H142.22C140.33 33.08 139.01 32.7 138.18 31.91C137.35 31.12 136.93 29.98 136.93 28.5C136.93 28.13 136.95 27.54 137 26.68C137.04 25.85 137.11 24.84 137.2 23.69C137.29 22.54 137.39 21.29 137.49 19.92C137.59 18.58 137.7 17.18 137.82 15.75C137.97 13.84 138.09 12.25 138.2 10.97C138.3 9.71997 138.38 8.64997 138.44 7.77997C138.5 6.93997 138.55 6.23997 138.6 5.69997C138.64 5.18997 138.67 4.72997 138.69 4.31997C138.7 3.90997 138.72 3.51997 138.73 3.14997C138.74 2.78997 138.75 2.32997 138.75 1.78997C138.75 1.31997 138.96 0.929971 139.35 0.709971C139.63 0.549971 139.91 0.469971 140.17 0.469971H146.4C147.65 0.469971 148.71 0.679971 149.54 1.08997C150.39 1.50997 151.1 2.15997 151.63 3.02997C152.14 3.84997 152.56 4.91997 152.87 6.19997C153.17 7.43997 153.45 8.91997 153.7 10.6C153.96 12.32 154.24 14.27 154.55 16.4C154.74 17.76 154.98 19.23 155.24 20.8C155.4 20.2 155.55 19.65 155.68 19.16C156.01 17.95 156.28 16.95 156.5 16.14C156.72 15.33 156.91 14.66 157.06 14.13C157.21 13.61 157.34 13.12 157.46 12.67C157.58 12.2 157.72 11.7 157.86 11.18C158.01 10.65 158.19 9.98997 158.39 9.20997L159.17 6.23997C159.48 5.04997 159.87 3.54997 160.35 1.71997V1.69997L160.36 1.67997C160.45 1.41997 160.6 1.16997 160.81 0.939971C161.09 0.639971 161.52 0.479971 162.1 0.479971H169.04C170.07 0.479971 170.89 0.579971 171.54 0.799971C172.22 1.02997 172.77 1.35997 173.18 1.78997C173.58 2.22997 173.86 2.75997 174.01 3.38997C174.14 3.94997 174.2 4.59997 174.2 5.31997C174.2 6.03997 174.16 7.08997 174.09 8.63997C174.02 10.16 173.91 11.88 173.78 13.77C173.65 15.66 173.51 17.62 173.38 19.65C173.25 21.68 173.11 23.58 172.98 25.3C172.85 27.03 172.74 28.5 172.65 29.7C172.52 31.52 172.48 31.78 172.47 31.86C172.42 32.22 172.31 32.5 172.14 32.71C171.81 33.09 171.28 33.09 171.11 33.09H168.66L168.65 33.05Z" fill="#A70400"/>
<path d="M182.27 33.49C181.03 33.49 179.81 33.24 178.63 32.76C177.44 32.26 176.36 31.44 175.43 30.3C174.52 29.18 173.78 27.68 173.24 25.84C172.71 24.03 172.43 21.75 172.43 19.09C172.43 18.07 172.49 16.89 172.61 15.57C172.73 14.23 172.99 12.84 173.36 11.45C173.74 10.04 174.3 8.65001 175.02 7.30001C175.75 5.93001 176.73 4.69001 177.92 3.62001C179.12 2.54001 180.6 1.66001 182.33 1.00001C184.06 0.34001 186.15 0.0100098 188.53 0.0100098C190.09 0.0100098 191.52 0.18001 192.77 0.52001C194.04 0.86001 195.14 1.35001 196.05 1.98001C196.98 2.62001 197.71 3.43001 198.21 4.37001C198.72 5.32001 198.98 6.39001 198.98 7.55001C198.98 9.46001 198.32 10.94 197.03 11.93C195.79 12.88 194.05 13.37 191.86 13.37C190.86 13.37 190.51 13.26 190.28 13.08C189.99 12.86 189.83 12.5 189.78 11.98C189.72 11.45 189.68 10.9 189.67 10.35C189.66 9.88001 189.59 9.45001 189.48 9.07001C189.38 8.76001 189.23 8.52001 189.01 8.33001C188.9 8.24001 188.59 8.08001 187.87 8.08001C186.58 8.08001 185.59 8.42001 184.85 9.13001C184.07 9.88001 183.46 10.81 183.05 11.88C182.63 13 182.36 14.16 182.24 15.34C182.12 16.56 182.06 17.6 182.06 18.43C182.06 19.79 182.15 20.95 182.32 21.86C182.48 22.74 182.72 23.46 183.02 23.99C183.3 24.48 183.62 24.82 183.98 25.01C184.36 25.21 184.81 25.31 185.32 25.31C186.32 25.31 187.16 25.11 187.82 24.7C188.41 24.34 188.76 23.66 188.89 22.63L189.16 20.17C189.25 19.28 189.38 18.56 189.54 17.97C189.77 17.14 190.39 16.67 191.25 16.67H193.7C194.52 16.67 195.18 16.76 195.72 16.95C196.31 17.16 196.78 17.51 197.11 17.99C197.42 18.44 197.63 19.02 197.73 19.7C197.82 20.32 197.87 21.08 197.87 21.96C197.87 22.56 197.85 23.35 197.8 24.33C197.76 25.28 197.7 26.28 197.62 27.3C197.54 28.31 197.46 29.24 197.37 30.08C197.28 30.94 197.2 31.53 197.14 31.87V31.9C197.04 32.3 196.92 32.57 196.73 32.75C196.44 33.04 196.02 33.07 195.73 33.07H193.28C191.54 33.07 190.31 32.7 189.51 31.94C189.17 31.61 188.89 31.25 188.68 30.85C188.29 31.36 187.79 31.83 187.19 32.26C186.03 33.09 184.36 33.51 182.24 33.51L182.27 33.49Z" fill="#A70400"/>
<path d="M165.8 8.90008C165.56 9.61008 165.26 10.5201 164.89 11.6501C164.52 12.7801 164.11 14.0201 163.67 15.3701C163.22 16.7201 162.76 18.1501 162.29 19.6701C161.81 21.1801 161.33 22.6601 160.84 24.1001C160.35 25.5401 159.87 26.9101 159.39 28.2201C158.91 29.5301 158.48 30.6701 158.1 31.6401C157.98 31.8801 157.74 32.0601 157.37 32.1901C157 32.3201 156.41 32.3901 155.61 32.3901C155.1 32.3901 154.59 32.3601 154.05 32.3001C153.52 32.2401 153.02 32.1201 152.56 31.9501C152.1 31.7701 151.7 31.5401 151.36 31.2401C151.02 30.9501 150.76 30.5801 150.58 30.1401C150.13 28.6401 149.71 26.9701 149.31 25.1401C148.91 23.3001 148.52 21.4301 148.13 19.5201C147.74 17.6101 147.37 15.7401 147 13.9001C146.63 12.0601 146.25 10.4001 145.86 8.90008C145.86 9.31008 145.84 10.0201 145.82 11.0201C145.79 12.0201 145.76 13.1801 145.73 14.5001C145.7 15.8201 145.66 17.2501 145.62 18.7701C145.58 20.3001 145.54 21.7901 145.51 23.2401C145.48 24.6901 145.45 26.0501 145.42 27.2901C145.39 28.5401 145.38 29.5601 145.38 30.3501C145.38 31.2301 145.33 31.7901 145.22 32.0201C145.12 32.2601 144.93 32.3701 144.66 32.3701H142.21C140.52 32.3701 139.32 32.0401 138.63 31.3801C137.93 30.7201 137.58 29.7401 137.58 28.4501C137.58 28.1001 137.6 27.5001 137.65 26.6701C137.69 25.8301 137.76 24.8401 137.85 23.7001C137.94 22.5501 138.04 21.3001 138.14 19.9301C138.24 18.5601 138.35 17.1801 138.47 15.7701C138.62 13.8601 138.74 12.2701 138.85 10.9901C138.95 9.71008 139.04 8.65008 139.09 7.79008C139.15 6.94008 139.2 6.25008 139.25 5.72008C139.3 5.19008 139.32 4.72008 139.34 4.31008C139.35 3.90008 139.37 3.51008 139.38 3.14008C139.39 2.77008 139.4 2.31008 139.4 1.75008C139.4 1.52008 139.49 1.35008 139.67 1.24008C139.85 1.14008 140.01 1.09008 140.16 1.09008H146.39C147.55 1.09008 148.5 1.27008 149.24 1.64008C149.98 2.01008 150.59 2.57008 151.07 3.34008C151.54 4.10008 151.93 5.10008 152.23 6.31008C152.53 7.53008 152.8 8.98008 153.05 10.6501C153.3 12.3201 153.58 14.2601 153.9 16.4501C154.21 18.6401 154.62 21.1001 155.12 23.8301C155.59 22.0101 155.99 20.5001 156.32 19.2901C156.65 18.0901 156.92 17.0801 157.14 16.2701C157.36 15.4601 157.55 14.7901 157.7 14.2601C157.85 13.7301 157.98 13.2401 158.1 12.7801C158.22 12.3201 158.35 11.8301 158.5 11.3001C158.65 10.7701 158.83 10.1101 159.03 9.32008C159.24 8.53008 159.5 7.54008 159.81 6.35008C160.12 5.16008 160.51 3.65008 160.99 1.83008C161.05 1.65008 161.15 1.49008 161.3 1.32008C161.45 1.16008 161.72 1.08008 162.1 1.08008H169.04C169.99 1.08008 170.75 1.18008 171.33 1.37008C171.91 1.56008 172.36 1.83008 172.69 2.19008C173.02 2.54008 173.24 2.98008 173.36 3.49008C173.48 4.00008 173.54 4.60008 173.54 5.27008C173.54 5.94008 173.5 7.04008 173.43 8.55008C173.36 10.0601 173.25 11.7701 173.12 13.6601C172.99 15.5601 172.85 17.5201 172.72 19.5401C172.59 21.5701 172.45 23.4501 172.32 25.1801C172.19 26.9101 172.08 28.3801 171.99 29.5901C171.9 30.8001 171.84 31.5001 171.81 31.7101C171.78 31.9501 171.72 32.1101 171.63 32.2201C171.54 32.3201 171.36 32.3701 171.1 32.3701H168.65C166.96 32.3701 165.76 32.0401 165.07 31.3801C164.37 30.7201 164.02 29.8601 164.02 28.8001C164.02 28.4801 164.06 27.8901 164.13 27.0401C164.2 26.1901 164.3 25.1901 164.42 24.0401C164.54 22.8901 164.67 21.6401 164.82 20.2701C164.97 18.9001 165.1 17.5501 165.22 16.1901C165.34 14.8401 165.45 13.5201 165.55 12.2501C165.65 10.9701 165.74 9.85008 165.79 8.88008L165.8 8.90008Z" fill="url(#paint0_linear_2804_234)"/>
<path d="M193.31 32.39C191.77 32.39 190.66 32.07 189.99 31.44C189.32 30.81 188.96 30.02 188.9 29.08C188.57 30.08 187.88 30.95 186.83 31.7C185.78 32.45 184.26 32.82 182.27 32.82C181.11 32.82 179.98 32.59 178.89 32.14C177.79 31.68 176.81 30.93 175.95 29.87C175.09 28.81 174.4 27.4 173.88 25.64C173.36 23.88 173.1 21.69 173.1 19.07C173.1 18.07 173.16 16.92 173.28 15.61C173.4 14.3 173.64 12.97 174.01 11.6C174.38 10.23 174.91 8.90002 175.61 7.59002C176.31 6.28002 177.23 5.12002 178.37 4.09002C179.51 3.06002 180.91 2.23002 182.58 1.60002C184.24 0.970024 186.23 0.650024 188.54 0.650024C190.05 0.650024 191.41 0.810024 192.61 1.13002C193.81 1.45002 194.84 1.91002 195.68 2.50002C196.53 3.09002 197.18 3.81002 197.64 4.66002C198.1 5.51002 198.33 6.47002 198.33 7.52002C198.33 9.22002 197.77 10.51 196.64 11.38C195.51 12.25 193.92 12.68 191.88 12.68C191.23 12.68 190.83 12.63 190.7 12.53C190.57 12.43 190.48 12.21 190.46 11.89C190.4 11.36 190.36 10.83 190.35 10.3C190.33 9.77003 190.26 9.29003 190.13 8.85003C190 8.41003 189.77 8.06002 189.44 7.79002C189.11 7.53002 188.59 7.39002 187.88 7.39002C186.43 7.39002 185.27 7.80002 184.41 8.62002C183.55 9.44002 182.9 10.44 182.45 11.62C182 12.8 181.72 14.01 181.6 15.26C181.48 16.51 181.42 17.56 181.42 18.41C181.42 19.82 181.51 21 181.69 21.96C181.87 22.92 182.13 23.69 182.47 24.3C182.81 24.9 183.22 25.33 183.69 25.58C184.16 25.83 184.71 25.95 185.34 25.95C186.47 25.95 187.42 25.72 188.19 25.24C188.96 24.77 189.42 23.92 189.57 22.68L189.84 20.21C189.93 19.36 190.05 18.66 190.2 18.12C190.35 17.58 190.7 17.3 191.27 17.3H193.72C194.46 17.3 195.06 17.38 195.52 17.54C195.98 17.7 196.34 17.97 196.59 18.33C196.84 18.7 197.01 19.17 197.1 19.76C197.19 20.35 197.23 21.07 197.23 21.92C197.23 22.51 197.21 23.29 197.16 24.26C197.12 25.23 197.06 26.21 196.98 27.21C196.91 28.21 196.82 29.13 196.74 29.96C196.65 30.8 196.58 31.38 196.52 31.7C196.46 31.96 196.39 32.14 196.3 32.23C196.21 32.32 196.03 32.36 195.77 32.36H193.32L193.31 32.39Z" fill="url(#paint1_linear_2804_234)"/>
<path d="M32.23 27.67C32.67 26.15 33.08 24.65 33.46 23.17C33.84 21.69 34.23 20.11 34.61 18.42C34.99 16.73 35.41 14.89 35.87 12.89C36.33 10.88 36.86 8.6 37.49 6.03C37.6 5.52 37.76 5.19 37.98 5.03C38.2 4.87 38.67 4.79 39.4 4.79C39.95 4.79 40.68 4.81 41.59 4.84C42.5 4.88 43.4 5 44.27 5.22C45.15 5.44 45.9 5.76 46.54 6.2C47.18 6.63 47.5 7.23 47.5 7.99C47.5 8.61 47.28 9.6 46.84 10.97C46.4 12.34 45.83 13.91 45.14 15.66C44.45 17.41 43.67 19.25 42.81 21.17C41.95 23.09 41.12 24.9 40.32 26.59C39.52 28.29 38.77 29.78 38.07 31.07C37.38 32.35 36.86 33.25 36.54 33.76C36.25 34.16 35.99 34.39 35.77 34.47C35.55 34.54 35.19 34.58 34.67 34.58H29.79C29.02 34.58 28.39 34.44 27.9 34.17C27.41 33.9 27 33.55 26.67 33.11C26.34 32.68 26.07 32.18 25.85 31.62C25.63 31.06 25.43 30.47 25.25 29.86C24.19 26.24 23.27 23.14 22.48 20.56C21.69 17.97 21.03 15.81 20.48 14.08C19.93 12.35 19.49 10.96 19.16 9.93C18.83 8.9 18.58 8.1 18.39 7.54C18.21 6.98 18.08 6.6 18.01 6.4C17.94 6.2 17.9 6.07 17.9 5.99C17.94 5.74 18.12 5.47 18.45 5.18C18.78 4.89 19.2 4.75 19.71 4.75C21.39 4.75 22.82 4.81 24.01 4.94C25.2 5.07 26.18 5.29 26.97 5.62C27.75 5.95 28.36 6.4 28.78 6.98C29.2 7.56 29.5 8.32 29.68 9.26C29.72 9.51 29.79 10.02 29.9 10.78C30.01 11.54 30.13 12.45 30.26 13.52C30.39 14.59 30.54 15.76 30.73 17.05C30.91 18.33 31.09 19.62 31.25 20.9C31.41 22.18 31.58 23.42 31.74 24.62C31.9 25.81 32.06 26.84 32.21 27.71L32.23 27.67Z" fill="#171923"/>
<path d="M42.75 27.24C42.75 23.99 44.23 21.44 47.19 19.59C50.15 17.75 54.51 16.75 60.28 16.61C60.32 16.21 60.34 15.88 60.36 15.61C60.38 15.34 60.39 15 60.39 14.61C60.39 13.45 60.17 12.53 59.73 11.84C59.29 11.15 58.38 10.81 56.99 10.81C56.22 10.81 55.6 10.92 55.13 11.14C54.65 11.36 54.27 11.66 53.98 12.04C53.69 12.42 53.45 12.88 53.27 13.42C53.09 13.96 52.92 14.56 52.78 15.21C52.71 15.54 52.54 15.74 52.29 15.83C52.03 15.92 51.63 15.97 51.08 15.97C47.35 15.97 45.49 14.58 45.49 11.79C45.49 10.67 45.75 9.60005 46.28 8.59005C46.81 7.58005 47.6 6.70005 48.64 5.96005C49.68 5.22005 50.99 4.63005 52.56 4.20005C54.13 3.77005 55.96 3.55005 58.04 3.55005C62.09 3.55005 65.03 4.38005 66.86 6.05005C68.69 7.71005 69.6 10.06 69.6 13.1C69.6 13.5 69.55 14.21 69.46 15.24C69.37 16.27 69.26 17.36 69.13 18.49C69 19.63 68.89 20.71 68.8 21.72C68.71 22.73 68.66 23.44 68.66 23.84C68.66 24.74 68.82 25.3901 69.15 25.7701C69.48 26.1501 69.85 26.41 70.27 26.56C70.69 26.7 71.06 26.81 71.39 26.89C71.72 26.96 71.88 27.14 71.88 27.43C71.88 28.23 71.77 29.0401 71.55 29.8701C71.33 30.7001 70.97 31.4601 70.48 32.1501C69.99 32.8401 69.31 33.4001 68.45 33.8301C67.59 34.2601 66.54 34.48 65.3 34.48C63.55 34.48 62.23 34.06 61.36 33.23C60.48 32.4 59.9 31.24 59.61 29.76C58.73 31.03 57.59 32.13 56.19 33.07C54.78 34.01 52.95 34.48 50.68 34.48C49.58 34.48 48.55 34.35 47.58 34.1C46.61 33.85 45.77 33.43 45.06 32.85C44.35 32.27 43.78 31.52 43.36 30.6C42.94 29.68 42.73 28.57 42.73 27.26L42.75 27.24ZM59.79 21.06C58.84 21.06 57.91 21.1301 57 21.2801C56.09 21.4301 55.27 21.65 54.56 21.96C53.85 22.27 53.27 22.67 52.83 23.18C52.39 23.69 52.17 24.3001 52.17 25.0201C52.17 25.8501 52.43 26.43 52.96 26.76C53.49 27.09 54.06 27.25 54.69 27.25C55.27 27.25 55.86 27.1201 56.44 26.8701C57.02 26.6201 57.54 26.2301 58 25.7001C58.46 25.1801 58.85 24.5301 59.18 23.7701C59.51 23.0101 59.71 22.11 59.78 21.06H59.79Z" fill="#171923"/>
<path d="M87.68 27.51C86.77 29.14 85.65 30.34 84.34 31.12C83.02 31.9 81.38 32.29 79.41 32.29C77.91 32.29 76.54 32.06 75.3 31.58C74.06 31.11 73 30.37 72.12 29.36C71.24 28.35 70.56 27.07 70.07 25.54C69.58 24 69.33 22.17 69.33 20.03C69.33 18.29 69.51 16.46 69.88 14.52C70.24 12.59 70.91 10.8 71.88 9.18004C72.85 7.55004 74.17 6.21004 75.85 5.14004C77.53 4.07004 79.69 3.54004 82.32 3.54004C83.42 3.54004 84.36 3.66004 85.14 3.89004C85.93 4.13004 86.6 4.44004 87.17 4.84004C87.74 5.24004 88.19 5.71004 88.54 6.25004C88.89 6.79004 89.15 7.37004 89.33 7.99004C89.33 8.03004 89.33 7.89004 89.36 7.58004C89.38 7.27004 89.41 6.92004 89.44 6.52004C89.48 6.12004 89.5 5.73004 89.52 5.35004C89.54 4.97004 89.55 4.73004 89.55 4.62004C89.59 4.26004 89.82 4.08004 90.26 4.08004H92.78C94.68 4.08004 96.06 4.47004 96.92 5.25004C97.78 6.03004 98.21 7.50004 98.21 9.67004C98.21 9.96004 98.19 10.62 98.16 11.65C98.12 12.68 98.06 13.92 97.97 15.37C97.88 16.82 97.76 18.42 97.61 20.17C97.46 21.92 97.3 23.69 97.12 25.46C96.94 27.23 96.74 28.93 96.52 30.56C96.3 32.19 96.06 33.62 95.81 34.85C95.55 36.08 95.12 37.27 94.49 38.43C93.87 39.59 92.99 40.62 91.86 41.52C90.73 42.42 89.28 43.15 87.5 43.69C85.73 44.23 83.56 44.5 81.01 44.5C79.07 44.5 77.38 44.32 75.94 43.96C74.5 43.6 73.3 43.12 72.35 42.52C71.4 41.92 70.68 41.25 70.19 40.49C69.7 39.73 69.45 38.97 69.45 38.21C69.45 37.52 69.6 36.93 69.89 36.42C70.18 35.91 70.57 35.5 71.04 35.17C71.51 34.84 72.03 34.6 72.6 34.44C73.17 34.28 73.7 34.2 74.22 34.2C74.84 34.2 75.3 34.38 75.59 34.74C75.88 35.1 76.21 35.51 76.58 35.96C76.94 36.41 77.46 36.82 78.11 37.18C78.77 37.54 79.79 37.72 81.18 37.72C83.59 37.72 85.28 36.84 86.25 35.09C87.22 33.34 87.7 30.81 87.7 27.52L87.68 27.51ZM83.08 25.07C84.39 25.07 85.43 24.76 86.18 24.15C86.93 23.54 87.5 22.79 87.91 21.93C88.31 21.06 88.57 20.16 88.68 19.22C88.79 18.28 88.84 17.47 88.84 16.78C88.84 14.61 88.5 13.06 87.83 12.14C87.15 11.22 86.14 10.76 84.79 10.76C83.44 10.76 82.38 11.12 81.61 11.84C80.84 12.56 80.27 13.42 79.88 14.42C79.5 15.42 79.25 16.41 79.14 17.4C79.03 18.4 78.98 19.16 78.98 19.71C78.98 21.52 79.29 22.87 79.91 23.75C80.53 24.64 81.59 25.08 83.09 25.08L83.08 25.07Z" fill="#171923"/>
<path d="M95.9 27.24C95.9 23.99 97.38 21.44 100.34 19.59C103.3 17.75 107.66 16.75 113.43 16.61C113.47 16.21 113.49 15.88 113.51 15.61C113.53 15.34 113.54 15 113.54 14.61C113.54 13.45 113.32 12.53 112.88 11.84C112.44 11.15 111.53 10.81 110.14 10.81C109.37 10.81 108.75 10.92 108.28 11.14C107.8 11.36 107.42 11.66 107.13 12.04C106.84 12.42 106.6 12.88 106.42 13.42C106.24 13.96 106.07 14.56 105.93 15.21C105.86 15.54 105.69 15.74 105.44 15.83C105.18 15.92 104.78 15.97 104.23 15.97C100.5 15.97 98.64 14.58 98.64 11.79C98.64 10.67 98.9 9.60005 99.43 8.59005C99.96 7.58005 100.75 6.70005 101.79 5.96005C102.83 5.22005 104.14 4.63005 105.71 4.20005C107.28 3.77005 109.11 3.55005 111.19 3.55005C115.24 3.55005 118.18 4.38005 120.01 6.05005C121.84 7.71005 122.75 10.06 122.75 13.1C122.75 13.5 122.7 14.21 122.61 15.24C122.52 16.27 122.41 17.36 122.28 18.49C122.15 19.63 122.04 20.71 121.95 21.72C121.86 22.73 121.81 23.44 121.81 23.84C121.81 24.74 121.97 25.3901 122.3 25.7701C122.63 26.1501 123 26.41 123.42 26.56C123.84 26.7 124.21 26.81 124.54 26.89C124.87 26.96 125.03 27.14 125.03 27.43C125.03 28.23 124.92 29.0401 124.7 29.8701C124.48 30.7001 124.12 31.4601 123.63 32.1501C123.14 32.8401 122.46 33.4001 121.6 33.8301C120.74 34.2601 119.69 34.48 118.45 34.48C116.7 34.48 115.38 34.06 114.51 33.23C113.63 32.4 113.05 31.24 112.76 29.76C111.88 31.03 110.74 32.13 109.34 33.07C107.93 34.01 106.1 34.48 103.83 34.48C102.73 34.48 101.7 34.35 100.73 34.1C99.76 33.85 98.92 33.43 98.21 32.85C97.5 32.27 96.93 31.52 96.51 30.6C96.09 29.68 95.88 28.57 95.88 27.26L95.9 27.24ZM112.94 21.06C111.99 21.06 111.06 21.1301 110.15 21.2801C109.24 21.4301 108.42 21.65 107.71 21.96C107 22.27 106.42 22.67 105.98 23.18C105.54 23.69 105.32 24.3001 105.32 25.0201C105.32 25.8501 105.58 26.43 106.11 26.76C106.64 27.09 107.21 27.25 107.84 27.25C108.42 27.25 109.01 27.1201 109.59 26.8701C110.17 26.6201 110.69 26.2301 111.15 25.7001C111.61 25.1801 112 24.5301 112.33 23.7701C112.66 23.0101 112.86 22.11 112.93 21.06H112.94Z" fill="#171923"/>
<path d="M135.67 3.53003C138.77 3.53003 141.06 4.14003 142.52 5.35003C143.98 6.56003 144.71 8.11003 144.71 9.99003C144.71 11.58 144.21 12.79 143.2 13.62C142.19 14.45 140.74 14.87 138.84 14.87C138.33 14.87 137.98 14.82 137.8 14.71C137.62 14.6 137.53 14.4 137.53 14.11C137.53 13.78 137.5 13.41 137.45 13C137.4 12.58 137.27 12.19 137.07 11.81C136.87 11.43 136.56 11.11 136.14 10.86C135.72 10.61 135.13 10.48 134.36 10.48C133.34 10.48 132.51 10.72 131.89 11.21C131.27 11.7 130.96 12.3 130.96 13.03C130.96 13.79 131.28 14.4 131.92 14.85C132.56 15.3 133.36 15.73 134.33 16.12C135.3 16.52 136.35 16.93 137.48 17.34C138.61 17.76 139.66 18.31 140.63 18.99C141.6 19.68 142.4 20.54 143.04 21.57C143.68 22.6 144 23.93 144 25.56C144 28.16 143.07 30.3 141.21 31.96C139.35 33.62 136.55 34.46 132.83 34.46C131.81 34.46 130.63 34.38 129.3 34.22C127.97 34.06 126.7 33.8 125.49 33.46C124.28 33.12 123.27 32.66 122.45 32.08C121.63 31.5 121.22 30.78 121.22 29.91C121.22 29.58 121.28 29.19 121.41 28.72C121.54 28.25 121.74 27.8 122.01 27.36C122.28 26.93 122.61 26.56 123 26.25C123.38 25.94 123.85 25.79 124.4 25.79C124.84 25.79 125.24 25.9 125.61 26.12C125.97 26.34 126.4 26.56 126.9 26.8C127.39 27.04 128 27.26 128.74 27.48C129.47 27.7 130.44 27.81 131.64 27.81C132.55 27.81 133.37 27.7 134.08 27.48C134.79 27.26 135.15 26.77 135.15 26.02C135.15 25.33 134.86 24.78 134.27 24.37C133.69 23.95 132.95 23.57 132.05 23.2C131.15 22.84 130.19 22.45 129.15 22.03C128.11 21.61 127.14 21.06 126.25 20.38C125.35 19.69 124.62 18.82 124.03 17.75C123.45 16.68 123.15 15.3 123.15 13.6C123.15 11.76 123.52 10.19 124.27 8.91003C125.02 7.63003 125.99 6.59003 127.17 5.79003C128.36 4.99003 129.7 4.43003 131.2 4.08003C132.7 3.74003 134.19 3.56003 135.69 3.56003L135.67 3.53003Z" fill="#171923"/>
<path d="M27.12 32.01C26.21 32.01 25.43 31.84 24.81 31.5C24.21 31.17 23.7 30.73 23.3 30.2C22.92 29.7 22.6 29.13 22.36 28.49C22.13 27.9 21.92 27.28 21.73 26.64C20.65 22.95 19.71 19.78 18.93 17.21C18.11 14.51 17.45 12.37 16.9 10.64C16.34 8.87996 15.9 7.47996 15.57 6.42996C15.24 5.38996 14.98 4.57996 14.79 4.00996C14.6 3.43996 14.48 3.06996 14.41 2.87996C14.3 2.57996 14.25 2.36996 14.25 2.17996V2.05996C14.32 1.59996 14.59 1.16996 15.08 0.729956C15.57 0.299956 16.18 0.0799561 16.9 0.0799561C18.62 0.0799561 20.12 0.149956 21.35 0.279956C22.63 0.419956 23.71 0.669956 24.58 1.02996C25.51 1.41996 26.25 1.96996 26.77 2.67996C27.27 3.35996 27.62 4.24996 27.83 5.31996V5.35996L28.06 6.89996C28.17 7.65996 28.29 8.56996 28.42 9.69996C28.55 10.78 28.71 11.98 28.89 13.26C29.08 14.58 29.26 15.9 29.42 17.18C29.55 18.22 29.69 19.23 29.82 20.21C29.89 19.95 29.96 19.68 30.03 19.42C30.41 17.93 30.81 16.32 31.19 14.63L32.47 9.01996C32.93 6.97996 33.49 4.63996 34.11 2.04996C34.26 1.34996 34.53 0.859956 34.92 0.559956C35.3 0.279956 35.9 0.149956 36.86 0.149956C37.42 0.149956 38.15 0.169956 39.11 0.209956C40.09 0.249956 41.06 0.389956 42 0.619956C42.98 0.859956 43.84 1.23996 44.57 1.72996C45.44 2.31996 45.9 3.18996 45.9 4.22996C45.9 4.94996 45.67 6.01996 45.19 7.50996C44.74 8.90996 44.16 10.52 43.45 12.32C42.75 14.1 41.95 15.99 41.07 17.94C40.21 19.85 39.36 21.71 38.54 23.46C37.72 25.19 36.95 26.73 36.24 28.04C35.52 29.38 35 30.28 34.65 30.82L34.62 30.86C34.21 31.42 33.83 31.74 33.43 31.87C33.12 31.97 32.68 32.02 32.06 32.02H27.12V32.01Z" fill="#171923"/>
<path d="M62.61 32.56C60.65 32.56 59.13 32.06 58.11 31.09C57.46 30.47 56.94 29.69 56.57 28.76C55.82 29.59 54.94 30.34 53.94 31.01C52.4 32.04 50.4 32.56 47.98 32.56C46.82 32.56 45.71 32.42 44.68 32.15C43.6 31.87 42.65 31.4 41.85 30.75C41.04 30.09 40.39 29.24 39.92 28.2C39.45 27.18 39.22 25.94 39.22 24.53C39.22 20.99 40.84 18.19 44.04 16.19C46.98 14.36 51.28 13.32 56.82 13.11C56.82 13.01 56.83 12.92 56.84 12.84C56.86 12.59 56.87 12.27 56.87 11.89C56.87 10.9 56.69 10.11 56.34 9.56C55.99 9.02 55.03 8.91 54.29 8.91C53.64 8.91 53.13 8.99 52.77 9.16C52.41 9.32 52.14 9.54 51.93 9.81C51.69 10.12 51.5 10.5 51.34 10.96C51.17 11.47 51.01 12.05 50.87 12.67C50.73 13.27 50.37 13.7 49.85 13.88C49.5 14 49.03 14.06 48.37 14.06C43.08 14.06 41.97 11.35 41.97 9.07C41.97 7.82 42.27 6.62 42.86 5.49C43.45 4.37 44.32 3.39 45.46 2.57C46.58 1.78 47.98 1.14 49.63 0.69C51.26 0.24 53.18 0 55.33 0C59.57 0 62.73 0.91 64.7 2.71C66.69 4.53 67.71 7.1 67.71 10.36C67.71 10.78 67.66 11.5 67.57 12.57C67.48 13.6 67.37 14.7 67.24 15.84C67.11 16.97 67 18.05 66.91 19.05C66.82 20.03 66.78 20.72 66.78 21.09C66.78 22.04 66.99 22.38 67.07 22.48C67.31 22.75 67.56 22.93 67.84 23.03C68.23 23.16 68.58 23.27 68.87 23.33C69.57 23.48 70 24 70 24.67C70 25.53 69.88 26.42 69.64 27.32C69.4 28.24 69 29.1 68.45 29.87C67.88 30.66 67.1 31.31 66.13 31.8C65.16 32.29 63.98 32.54 62.61 32.54V32.56ZM56.16 19.18C55.57 19.21 54.98 19.27 54.41 19.36C53.57 19.49 52.81 19.7 52.17 19.98C51.58 20.24 51.09 20.58 50.74 20.99C50.43 21.35 50.28 21.78 50.28 22.3C50.28 23.09 50.58 23.27 50.69 23.34C51.09 23.59 51.52 23.71 51.99 23.71C52.46 23.71 52.94 23.6 53.42 23.4C53.89 23.2 54.32 22.88 54.69 22.45C55.09 21.99 55.44 21.42 55.73 20.74C55.92 20.29 56.07 19.77 56.17 19.19L56.16 19.18Z" fill="#171923"/>
<path d="M78.28 42.59C76.29 42.59 74.52 42.4 73.01 42.02C71.49 41.64 70.2 41.12 69.19 40.48C68.14 39.82 67.33 39.06 66.78 38.2C66.2 37.31 65.91 36.39 65.91 35.48C65.91 34.65 66.09 33.91 66.46 33.28C66.81 32.67 67.28 32.16 67.85 31.77C68.39 31.4 69 31.11 69.65 30.93C70.29 30.75 70.91 30.65 71.49 30.65C72.37 30.65 73.04 30.93 73.49 31.49L74.48 32.71C74.78 33.08 75.21 33.42 75.77 33.73C76.14 33.93 76.9 34.17 78.45 34.17C80.56 34.17 81.98 33.45 82.81 31.96C83.43 30.84 83.84 29.34 84.03 27.48C83.42 28.13 82.76 28.67 82.05 29.09C80.61 29.94 78.82 30.37 76.7 30.37C75.11 30.37 73.63 30.11 72.3 29.61C70.94 29.1 69.76 28.27 68.8 27.16C67.86 26.07 67.11 24.69 66.59 23.05C66.07 21.44 65.81 19.5 65.81 17.3C65.81 15.52 66 13.62 66.37 11.64C66.75 9.62 67.46 7.73 68.47 6.03C69.5 4.3 70.92 2.85 72.71 1.72C74.5 0.59 76.82 0 79.6 0C80.77 0 81.8 0.13 82.65 0.39C83.52 0.65 84.28 1.01 84.91 1.45C85.32 1.74 85.68 2.06 85.99 2.42C86 2.16 86.01 1.99 86.01 1.9V1.82C86.08 1.2 86.51 0.54 87.54 0.54H90.06C92.19 0.54 93.72 0.99 94.74 1.92C95.79 2.87 96.3 4.51 96.3 6.94C96.3 7.23 96.28 7.87 96.24 8.95C96.2 9.98 96.14 11.24 96.05 12.69C95.96 14.12 95.84 15.74 95.69 17.51C95.54 19.27 95.38 21.06 95.2 22.82C95.02 24.6 94.81 26.33 94.59 27.94C94.37 29.57 94.13 31.04 93.87 32.28C93.6 33.58 93.13 34.86 92.48 36.08C91.81 37.33 90.85 38.45 89.64 39.42C88.43 40.38 86.87 41.16 85.01 41.73C83.17 42.29 80.9 42.58 78.28 42.58V42.59ZM82.06 8.85C80.91 8.85 80.06 9.13 79.44 9.71C78.77 10.35 78.25 11.11 77.92 11.99C77.56 12.92 77.33 13.85 77.23 14.77C77.12 15.73 77.07 16.48 77.07 16.99C77.07 18.62 77.33 19.82 77.85 20.56C78.31 21.22 79.13 21.54 80.36 21.54C81.48 21.54 82.34 21.29 82.94 20.8C83.59 20.27 84.1 19.61 84.44 18.86C84.8 18.07 85.04 17.25 85.14 16.4C85.25 15.49 85.3 14.71 85.3 14.05C85.3 11.58 84.83 10.43 84.44 9.89C83.92 9.18 83.14 8.84 82.06 8.84V8.85Z" fill="#171923"/>
<path d="M115.76 32.56C113.8 32.56 112.28 32.06 111.26 31.09C110.61 30.47 110.09 29.69 109.72 28.76C108.97 29.59 108.09 30.34 107.09 31.01C105.55 32.04 103.55 32.56 101.13 32.56C99.97 32.56 98.86 32.42 97.83 32.15C96.75 31.87 95.8 31.4 95 30.75C94.19 30.09 93.54 29.24 93.07 28.2C92.6 27.18 92.37 25.94 92.37 24.53C92.37 20.99 93.99 18.19 97.19 16.19C100.13 14.36 104.43 13.32 109.97 13.11C109.97 13.01 109.98 12.92 109.99 12.84C110.01 12.59 110.02 12.27 110.02 11.89C110.02 10.9 109.84 10.11 109.49 9.56001C109.14 9.02001 108.18 8.91001 107.44 8.91001C106.79 8.91001 106.28 8.99001 105.92 9.16001C105.56 9.32001 105.29 9.54001 105.08 9.81001C104.84 10.12 104.65 10.5 104.49 10.96C104.32 11.47 104.16 12.05 104.02 12.67C103.88 13.27 103.52 13.7 103 13.88C102.65 14 102.18 14.06 101.52 14.06C96.23 14.06 95.12 11.35 95.12 9.07001C95.12 7.82001 95.42 6.62001 96.01 5.49001C96.6 4.37001 97.47 3.39001 98.61 2.57001C99.73 1.78001 101.13 1.14001 102.78 0.69001C104.41 0.24001 106.33 0.0100098 108.48 0.0100098C112.72 0.0100098 115.88 0.92001 117.85 2.72001C119.84 4.54001 120.86 7.11001 120.86 10.37C120.86 10.79 120.81 11.51 120.72 12.58C120.63 13.61 120.52 14.71 120.39 15.85C120.26 16.98 120.15 18.06 120.06 19.06C119.97 20.04 119.93 20.73 119.93 21.1C119.93 22.05 120.14 22.39 120.22 22.49C120.46 22.76 120.71 22.94 120.99 23.04C121.38 23.17 121.73 23.28 122.02 23.34C122.72 23.49 123.15 24.01 123.15 24.68C123.15 25.54 123.03 26.43 122.79 27.33C122.55 28.25 122.15 29.11 121.6 29.88C121.03 30.67 120.25 31.32 119.28 31.81C118.31 32.3 117.13 32.55 115.76 32.55V32.56ZM109.31 19.18C108.72 19.21 108.13 19.27 107.56 19.36C106.72 19.49 105.96 19.7 105.32 19.98C104.73 20.24 104.24 20.58 103.89 20.99C103.58 21.35 103.43 21.78 103.43 22.3C103.43 23.09 103.73 23.27 103.84 23.34C104.24 23.59 104.67 23.71 105.14 23.71C105.61 23.71 106.09 23.6 106.57 23.4C107.04 23.2 107.47 22.88 107.84 22.45C108.24 21.99 108.59 21.42 108.88 20.74C109.07 20.29 109.22 19.77 109.32 19.19L109.31 19.18Z" fill="#171923"/>
<path d="M130.11 32.56C129.06 32.56 127.84 32.48 126.48 32.31C125.11 32.14 123.79 31.88 122.55 31.53C121.26 31.16 120.16 30.66 119.26 30.03C118.23 29.3 117.68 28.32 117.68 27.19C117.68 26.79 117.75 26.33 117.9 25.78C118.05 25.24 118.28 24.7 118.6 24.2C118.92 23.69 119.31 23.25 119.77 22.89C120.3 22.47 120.94 22.25 121.68 22.25C122.26 22.25 122.81 22.4 123.3 22.69C123.64 22.89 124.05 23.11 124.52 23.33C124.97 23.55 125.55 23.76 126.24 23.96C126.89 24.15 127.79 24.25 128.91 24.25C129.74 24.25 130.48 24.15 131.11 23.96C131.48 23.85 131.6 23.67 131.6 23.27C131.6 22.85 131.43 22.54 131.06 22.28C130.53 21.9 129.84 21.54 129.01 21.21C128.12 20.85 127.15 20.46 126.11 20.05C125.01 19.61 123.96 19.02 123.01 18.29C122.03 17.54 121.21 16.57 120.57 15.4C119.92 14.22 119.59 12.69 119.59 10.86C119.59 8.88 120.01 7.16 120.82 5.76C121.63 4.37 122.69 3.24 123.97 2.37C125.23 1.52 126.68 0.91 128.27 0.54C129.82 0.18 131.39 0 132.95 0C136.23 0 138.71 0.67 140.32 2C141.97 3.37 142.81 5.14 142.81 7.26C142.81 9.1 142.2 10.53 141.01 11.52C139.86 12.47 138.22 12.95 136.14 12.95C135.45 12.95 135.01 12.86 134.68 12.67C134.43 12.52 134.01 12.16 134.01 11.37C134.01 11.08 133.98 10.74 133.93 10.36C133.89 10.04 133.79 9.73 133.63 9.44C133.5 9.19 133.29 8.99 133 8.81C132.8 8.69 132.4 8.55 131.64 8.55C130.81 8.55 130.15 8.74 129.68 9.11C129.26 9.44 129.06 9.82 129.06 10.29C129.06 10.79 129.25 11.14 129.67 11.44C130.26 11.86 131.01 12.25 131.92 12.63C132.87 13.02 133.92 13.43 135.04 13.84C136.23 14.28 137.36 14.87 138.38 15.59C139.43 16.34 140.32 17.28 141.01 18.4C141.73 19.56 142.09 21.04 142.09 22.82C142.09 25.65 141.06 28.01 139.02 29.83C137.01 31.62 134.01 32.53 130.1 32.53L130.11 32.56Z" fill="#171923"/>
<path d="M29.52 24.31C29.96 22.79 30.37 21.29 30.75 19.81C31.13 18.33 31.52 16.75 31.9 15.06C32.28 13.37 32.7 11.53 33.16 9.53001C33.62 7.52001 34.15 5.24001 34.78 2.67001C34.89 2.16001 35.05 1.83001 35.27 1.67001C35.49 1.51001 35.96 1.43001 36.69 1.43001C37.24 1.43001 37.97 1.45001 38.88 1.48001C39.79 1.52001 40.69 1.64001 41.56 1.86001C42.44 2.08001 43.19 2.40001 43.83 2.84001C44.47 3.27001 44.79 3.87001 44.79 4.63001C44.79 5.25001 44.57 6.24001 44.13 7.61001C43.69 8.98001 43.12 10.55 42.43 12.3C41.74 14.05 40.96 15.89 40.1 17.81C39.24 19.73 38.41 21.54 37.61 23.23C36.81 24.93 36.06 26.42 35.36 27.71C34.67 28.99 34.15 29.89 33.83 30.4C33.54 30.8 33.28 31.03 33.06 31.11C32.84 31.18 32.48 31.22 31.96 31.22H27.08C26.31 31.22 25.68 31.08 25.19 30.81C24.7 30.54 24.29 30.19 23.96 29.75C23.63 29.32 23.36 28.82 23.14 28.26C22.92 27.7 22.72 27.11 22.54 26.5C21.48 22.88 20.56 19.78 19.77 17.2C18.98 14.61 18.32 12.45 17.77 10.72C17.22 8.98001 16.78 7.60001 16.45 6.57001C16.12 5.54001 15.87 4.74001 15.68 4.18001C15.5 3.62001 15.37 3.24001 15.3 3.04001C15.23 2.84001 15.19 2.71001 15.19 2.63001C15.23 2.38001 15.41 2.11001 15.74 1.82001C16.07 1.53001 16.49 1.39001 17 1.39001C18.68 1.39001 20.11 1.45001 21.3 1.58001C22.49 1.71001 23.47 1.93001 24.26 2.26001C25.05 2.59001 25.65 3.04001 26.07 3.62001C26.49 4.20001 26.79 4.96001 26.97 5.90001C27.01 6.15001 27.08 6.66001 27.19 7.42001C27.3 8.18001 27.42 9.09001 27.55 10.16C27.68 11.23 27.83 12.4 28.02 13.69C28.2 14.97 28.38 16.26 28.54 17.54C28.7 18.82 28.87 20.06 29.03 21.26C29.19 22.45 29.35 23.48 29.5 24.35L29.52 24.31Z" fill="url(#paint2_linear_2804_234)"/>
<path d="M84.97 24.8C84.06 26.43 82.94 27.63 81.63 28.41C80.31 29.19 78.67 29.58 76.7 29.58C75.2 29.58 73.83 29.35 72.59 28.87C71.35 28.4 70.29 27.66 69.41 26.65C68.53 25.64 67.85 24.36 67.36 22.83C66.87 21.29 66.62 19.46 66.62 17.32C66.62 15.58 66.8 13.75 67.17 11.81C67.53 9.87996 68.2 8.08996 69.17 6.46996C70.14 4.83996 71.46 3.49996 73.14 2.42996C74.82 1.35996 76.98 0.829956 79.61 0.829956C80.71 0.829956 81.65 0.949956 82.43 1.17996C83.22 1.41996 83.89 1.72996 84.46 2.12996C85.03 2.52996 85.48 2.99996 85.83 3.53996C86.18 4.07996 86.44 4.65996 86.62 5.27996C86.62 5.31996 86.62 5.17996 86.65 4.86996C86.67 4.55996 86.7 4.20996 86.73 3.80996C86.77 3.40996 86.79 3.01996 86.81 2.63996C86.83 2.25996 86.84 2.01996 86.84 1.90996C86.88 1.54996 87.11 1.36996 87.55 1.36996H90.07C91.97 1.36996 93.35 1.75996 94.21 2.53996C95.07 3.31996 95.5 4.78996 95.5 6.95996C95.5 7.24996 95.48 7.90996 95.45 8.93996C95.41 9.96996 95.35 11.21 95.26 12.66C95.17 14.11 95.05 15.71 94.9 17.46C94.75 19.21 94.59 20.98 94.41 22.75C94.23 24.52 94.03 26.22 93.81 27.85C93.59 29.48 93.35 30.91 93.1 32.14C92.84 33.37 92.41 34.56 91.78 35.72C91.16 36.88 90.28 37.91 89.15 38.81C88.02 39.71 86.57 40.44 84.79 40.98C83.02 41.52 80.85 41.79 78.3 41.79C76.36 41.79 74.67 41.61 73.23 41.25C71.79 40.89 70.59 40.41 69.64 39.81C68.69 39.21 67.97 38.54 67.48 37.78C66.99 37.02 66.74 36.26 66.74 35.5C66.74 34.81 66.89 34.22 67.18 33.71C67.47 33.2 67.86 32.79 68.33 32.46C68.8 32.13 69.32 31.89 69.89 31.73C70.46 31.57 70.99 31.49 71.51 31.49C72.13 31.49 72.59 31.67 72.88 32.03C73.17 32.39 73.5 32.8 73.87 33.25C74.23 33.7 74.75 34.11 75.4 34.47C76.06 34.83 77.08 35.01 78.47 35.01C80.88 35.01 82.57 34.13 83.54 32.38C84.51 30.63 84.99 28.1 84.99 24.81L84.97 24.8ZM80.36 22.36C81.67 22.36 82.71 22.05 83.46 21.44C84.21 20.83 84.78 20.08 85.19 19.22C85.59 18.35 85.85 17.45 85.96 16.51C86.07 15.57 86.12 14.76 86.12 14.07C86.12 11.9 85.78 10.35 85.11 9.42996C84.43 8.50996 83.42 8.04996 82.07 8.04996C80.72 8.04996 79.66 8.40996 78.89 9.12996C78.12 9.84996 77.55 10.71 77.16 11.71C76.78 12.71 76.53 13.7 76.42 14.69C76.31 15.69 76.26 16.45 76.26 17C76.26 18.81 76.57 20.16 77.19 21.04C77.81 21.93 78.87 22.37 80.37 22.37L80.36 22.36Z" fill="url(#paint3_linear_2804_234)"/>
<path d="M132.96 0.819946C136.06 0.819946 138.35 1.42995 139.81 2.63995C141.27 3.84995 142 5.39995 142 7.27995C142 8.86995 141.5 10.0799 140.49 10.9099C139.49 11.7399 138.03 12.1599 136.13 12.1599C135.62 12.1599 135.27 12.1099 135.09 11.9999C134.91 11.8899 134.82 11.6899 134.82 11.3999C134.82 11.0699 134.79 10.6999 134.74 10.2899C134.69 9.86995 134.56 9.47995 134.36 9.09995C134.16 8.71995 133.85 8.39995 133.43 8.14995C133.01 7.89995 132.42 7.76995 131.65 7.76995C130.63 7.76995 129.81 8.00995 129.18 8.49995C128.56 8.98995 128.25 9.58995 128.25 10.3199C128.25 11.0799 128.57 11.6899 129.21 12.1399C129.85 12.5899 130.65 13.0199 131.62 13.4099C132.59 13.8099 133.64 14.2199 134.77 14.6299C135.9 15.0499 136.95 15.5999 137.92 16.2799C138.89 16.9699 139.69 17.8299 140.33 18.8599C140.97 19.8899 141.29 21.2199 141.29 22.8499C141.29 25.4499 140.36 27.5899 138.5 29.2499C136.64 30.9099 133.84 31.7499 130.12 31.7499C129.1 31.7499 127.92 31.6699 126.59 31.5099C125.26 31.3499 123.99 31.0899 122.78 30.7499C121.57 30.4099 120.56 29.9499 119.74 29.3699C118.92 28.7899 118.51 28.0699 118.51 27.1999C118.51 26.8699 118.57 26.4799 118.7 26.0099C118.83 25.5399 119.03 25.0899 119.3 24.6499C119.57 24.2099 119.9 23.8499 120.29 23.5399C120.67 23.2299 121.14 23.0799 121.69 23.0799C122.13 23.0799 122.53 23.1899 122.9 23.4099C123.26 23.6299 123.69 23.8499 124.19 24.0899C124.68 24.3299 125.29 24.5499 126.03 24.7699C126.76 24.9899 127.73 25.0999 128.93 25.0999C129.84 25.0999 130.66 24.9899 131.37 24.7699C132.08 24.5499 132.44 24.0599 132.44 23.3099C132.44 22.6199 132.15 22.0699 131.56 21.6599C130.98 21.2399 130.24 20.8599 129.34 20.4899C128.44 20.1299 127.48 19.7399 126.44 19.3199C125.4 18.8999 124.43 18.3499 123.54 17.6699C122.64 16.9799 121.9 16.1099 121.32 15.0399C120.74 13.9699 120.44 12.5899 120.44 10.8899C120.44 9.04995 120.81 7.47995 121.56 6.19995C122.31 4.91995 123.28 3.87995 124.46 3.07995C125.65 2.27995 126.99 1.71995 128.49 1.36995C129.99 1.02995 131.48 0.849946 132.98 0.849946L132.96 0.819946Z" fill="url(#paint4_linear_2804_234)"/>
<path d="M62.61 32.56C60.65 32.56 59.13 32.06 58.11 31.09C57.46 30.47 56.94 29.69 56.57 28.76C55.82 29.59 54.94 30.34 53.94 31.01C52.4 32.04 50.4 32.56 47.98 32.56C46.82 32.56 45.71 32.42 44.68 32.15C43.6 31.87 42.65 31.4 41.85 30.75C41.04 30.09 40.39 29.24 39.92 28.2C39.45 27.18 39.22 25.94 39.22 24.53C39.22 20.99 40.84 18.19 44.04 16.19C46.98 14.36 51.28 13.32 56.82 13.11C56.82 13.01 56.83 12.92 56.84 12.84C56.86 12.59 56.87 12.27 56.87 11.89C56.87 10.9 56.69 10.11 56.34 9.56C55.99 9.02 55.03 8.91 54.29 8.91C53.64 8.91 53.13 8.99 52.77 9.16C52.41 9.32 52.14 9.54 51.93 9.81C51.69 10.12 51.5 10.5 51.34 10.96C51.17 11.47 51.01 12.05 50.87 12.67C50.73 13.27 50.37 13.7 49.85 13.88C49.5 14 49.03 14.06 48.37 14.06C43.08 14.06 41.97 11.35 41.97 9.07C41.97 7.82 42.27 6.62 42.86 5.49C43.45 4.37 44.32 3.39 45.46 2.57C46.58 1.78 47.98 1.14 49.63 0.69C51.26 0.24 53.18 0 55.33 0C59.57 0 62.73 0.91 64.7 2.71C66.69 4.53 67.71 7.1 67.71 10.36C67.71 10.78 67.66 11.5 67.57 12.57C67.48 13.6 67.37 14.7 67.24 15.84C67.11 16.97 67 18.05 66.91 19.05C66.82 20.03 66.78 20.72 66.78 21.09C66.78 22.04 66.99 22.38 67.07 22.48C67.31 22.75 67.56 22.93 67.84 23.03C68.23 23.16 68.58 23.27 68.87 23.33C69.57 23.48 70 24 70 24.67C70 25.53 69.88 26.42 69.64 27.32C69.4 28.24 69 29.1 68.45 29.87C67.88 30.66 67.1 31.31 66.13 31.8C65.16 32.29 63.98 32.54 62.61 32.54V32.56ZM56.16 19.18C55.57 19.21 54.98 19.27 54.41 19.36C53.57 19.49 52.81 19.7 52.17 19.98C51.58 20.24 51.09 20.58 50.74 20.99C50.43 21.35 50.28 21.78 50.28 22.3C50.28 23.09 50.58 23.27 50.69 23.34C51.09 23.59 51.52 23.71 51.99 23.71C52.46 23.71 52.94 23.6 53.42 23.4C53.89 23.2 54.32 22.88 54.69 22.45C55.09 21.99 55.44 21.42 55.73 20.74C55.92 20.29 56.07 19.77 56.17 19.19L56.16 19.18Z" fill="#171923"/>
<path d="M40.04 24.53C40.04 21.28 41.52 18.73 44.48 16.88C47.44 15.04 51.8 14.04 57.57 13.9C57.61 13.5 57.63 13.17 57.65 12.9C57.67 12.63 57.68 12.29 57.68 11.9C57.68 10.74 57.46 9.81997 57.02 9.12997C56.58 8.43997 55.67 8.09997 54.28 8.09997C53.51 8.09997 52.89 8.20997 52.42 8.42997C51.94 8.64997 51.56 8.94997 51.27 9.32997C50.98 9.70997 50.74 10.17 50.56 10.71C50.38 11.25 50.21 11.85 50.07 12.5C50 12.83 49.83 13.03 49.58 13.12C49.32 13.21 48.92 13.26 48.37 13.26C44.64 13.26 42.78 11.87 42.78 9.07997C42.78 7.95997 43.04 6.88997 43.57 5.87997C44.1 4.86997 44.88 3.98997 45.93 3.24997C46.97 2.50997 48.28 1.91997 49.85 1.48997C51.42 1.05997 53.25 0.839966 55.33 0.839966C59.38 0.839966 62.32 1.66997 64.15 3.33997C65.98 4.99997 66.89 7.34997 66.89 10.39C66.89 10.79 66.84 11.5 66.75 12.53C66.66 13.56 66.55 14.65 66.42 15.78C66.29 16.92 66.18 18 66.09 19.01C66 20.02 65.95 20.73 65.95 21.13C65.95 22.03 66.11 22.68 66.44 23.06C66.77 23.44 67.14 23.7 67.56 23.85C67.98 23.99 68.35 24.1 68.68 24.18C69.01 24.25 69.17 24.43 69.17 24.72C69.17 25.52 69.06 26.33 68.84 27.16C68.62 27.99 68.26 28.75 67.77 29.44C67.28 30.13 66.6 30.69 65.74 31.12C64.88 31.55 63.83 31.77 62.59 31.77C60.84 31.77 59.52 31.35 58.65 30.52C57.77 29.69 57.19 28.53 56.9 27.05C56.02 28.32 54.88 29.42 53.48 30.36C52.07 31.3 50.24 31.77 47.97 31.77C46.87 31.77 45.84 31.64 44.87 31.39C43.9 31.14 43.06 30.72 42.35 30.14C41.64 29.56 41.07 28.81 40.65 27.89C40.23 26.97 40.02 25.86 40.02 24.55L40.04 24.53ZM57.08 18.34C56.13 18.34 55.2 18.41 54.29 18.56C53.38 18.71 52.56 18.93 51.85 19.24C51.14 19.55 50.56 19.95 50.12 20.46C49.68 20.97 49.46 21.58 49.46 22.3C49.46 23.13 49.72 23.71 50.25 24.04C50.78 24.37 51.35 24.53 51.98 24.53C52.56 24.53 53.15 24.4 53.73 24.15C54.31 23.9 54.83 23.51 55.29 22.98C55.75 22.46 56.14 21.81 56.47 21.05C56.8 20.29 57 19.39 57.07 18.34H57.08Z" fill="url(#paint5_linear_2804_234)"/>
<path d="M115.76 32.56C113.8 32.56 112.28 32.06 111.26 31.09C110.61 30.47 110.09 29.69 109.72 28.76C108.97 29.59 108.09 30.34 107.09 31.01C105.55 32.04 103.55 32.56 101.13 32.56C99.97 32.56 98.86 32.42 97.83 32.15C96.75 31.87 95.8 31.4 95 30.75C94.19 30.09 93.54 29.24 93.07 28.2C92.6 27.18 92.37 25.94 92.37 24.53C92.37 20.99 93.99 18.19 97.19 16.19C100.13 14.36 104.43 13.32 109.97 13.11C109.97 13.01 109.98 12.92 109.99 12.84C110.01 12.59 110.02 12.27 110.02 11.89C110.02 10.9 109.84 10.11 109.49 9.56001C109.14 9.02001 108.18 8.91001 107.44 8.91001C106.79 8.91001 106.28 8.99001 105.92 9.16001C105.56 9.32001 105.29 9.54001 105.08 9.81001C104.84 10.12 104.65 10.5 104.49 10.96C104.32 11.47 104.16 12.05 104.02 12.67C103.88 13.27 103.52 13.7 103 13.88C102.65 14 102.18 14.06 101.52 14.06C96.23 14.06 95.12 11.35 95.12 9.07001C95.12 7.82001 95.42 6.62001 96.01 5.49001C96.6 4.37001 97.47 3.39001 98.61 2.57001C99.73 1.78001 101.13 1.14001 102.78 0.69001C104.41 0.24001 106.33 0.0100098 108.48 0.0100098C112.72 0.0100098 115.88 0.92001 117.85 2.72001C119.84 4.54001 120.86 7.11001 120.86 10.37C120.86 10.79 120.81 11.51 120.72 12.58C120.63 13.61 120.52 14.71 120.39 15.85C120.26 16.98 120.15 18.06 120.06 19.06C119.97 20.04 119.93 20.73 119.93 21.1C119.93 22.05 120.14 22.39 120.22 22.49C120.46 22.76 120.71 22.94 120.99 23.04C121.38 23.17 121.73 23.28 122.02 23.34C122.72 23.49 123.15 24.01 123.15 24.68C123.15 25.54 123.03 26.43 122.79 27.33C122.55 28.25 122.15 29.11 121.6 29.88C121.03 30.67 120.25 31.32 119.28 31.81C118.31 32.3 117.13 32.55 115.76 32.55V32.56ZM109.31 19.18C108.72 19.21 108.13 19.27 107.56 19.36C106.72 19.49 105.96 19.7 105.32 19.98C104.73 20.24 104.24 20.58 103.89 20.99C103.58 21.35 103.43 21.78 103.43 22.3C103.43 23.09 103.73 23.27 103.84 23.34C104.24 23.59 104.67 23.71 105.14 23.71C105.61 23.71 106.09 23.6 106.57 23.4C107.04 23.2 107.47 22.88 107.84 22.45C108.24 21.99 108.59 21.42 108.88 20.74C109.07 20.29 109.22 19.77 109.32 19.19L109.31 19.18Z" fill="#171923"/>
<path d="M93.18 24.53C93.18 21.28 94.66 18.73 97.62 16.88C100.58 15.04 104.94 14.04 110.71 13.9C110.75 13.5 110.77 13.17 110.79 12.9C110.81 12.63 110.82 12.29 110.82 11.9C110.82 10.74 110.6 9.81997 110.16 9.12997C109.72 8.43997 108.81 8.09997 107.42 8.09997C106.65 8.09997 106.03 8.20997 105.56 8.42997C105.08 8.64997 104.7 8.94997 104.41 9.32997C104.12 9.70997 103.88 10.17 103.7 10.71C103.52 11.25 103.35 11.85 103.21 12.5C103.14 12.83 102.97 13.03 102.72 13.12C102.46 13.21 102.06 13.26 101.51 13.26C97.78 13.26 95.92 11.87 95.92 9.07997C95.92 7.95997 96.18 6.88997 96.71 5.87997C97.24 4.86997 98.02 3.98997 99.07 3.24997C100.11 2.50997 101.42 1.91997 102.99 1.48997C104.56 1.05997 106.39 0.839966 108.47 0.839966C112.52 0.839966 115.46 1.66997 117.29 3.33997C119.12 4.99997 120.03 7.34997 120.03 10.39C120.03 10.79 119.98 11.5 119.89 12.53C119.8 13.56 119.69 14.65 119.56 15.78C119.43 16.92 119.32 18 119.23 19.01C119.14 20.02 119.09 20.73 119.09 21.13C119.09 22.03 119.25 22.68 119.58 23.06C119.91 23.44 120.28 23.7 120.7 23.85C121.12 23.99 121.49 24.1 121.82 24.18C122.15 24.25 122.31 24.43 122.31 24.72C122.31 25.52 122.2 26.33 121.98 27.16C121.76 27.99 121.4 28.75 120.91 29.44C120.42 30.13 119.74 30.69 118.88 31.12C118.02 31.55 116.97 31.77 115.73 31.77C113.98 31.77 112.66 31.35 111.79 30.52C110.91 29.69 110.33 28.53 110.04 27.05C109.16 28.32 108.02 29.42 106.62 30.36C105.21 31.3 103.38 31.77 101.11 31.77C100.01 31.77 98.98 31.64 98.01 31.39C97.04 31.14 96.2 30.72 95.49 30.14C94.78 29.56 94.21 28.81 93.79 27.89C93.37 26.97 93.16 25.86 93.16 24.55L93.18 24.53ZM110.22 18.34C109.27 18.34 108.34 18.41 107.43 18.56C106.52 18.71 105.7 18.93 104.99 19.24C104.28 19.55 103.7 19.95 103.26 20.46C102.82 20.97 102.6 21.58 102.6 22.3C102.6 23.13 102.86 23.71 103.39 24.04C103.92 24.37 104.49 24.53 105.12 24.53C105.7 24.53 106.29 24.4 106.87 24.15C107.45 23.9 107.97 23.51 108.43 22.98C108.89 22.46 109.28 21.81 109.61 21.05C109.94 20.29 110.14 19.39 110.21 18.34H110.22Z" fill="url(#paint6_linear_2804_234)"/>
<path d="M16.48 11.14C16.54 11.33 16.56 11.52 16.55 11.72L17.87 14.19C17.88 13.98 17.86 13.79 17.8 13.6C17.8 13.6 17.79 13.55 17.78 13.53C17.78 13.52 17.78 13.51 17.77 13.49C17.75 13.44 17.73 13.4 17.7 13.35L16.39 10.9C16.39 10.9 16.42 10.97 16.44 11C16.46 11.04 16.47 11.08 16.49 11.13L16.48 11.14Z" fill="#A70400"/>
<path d="M17.88 14.2L16.56 11.73L16.28 16.72L17.6 19.2L17.88 14.2Z" fill="#A70400"/>
<path d="M6.83 25.39H1.66C1.01 25.39 0.460002 25.05 0.190002 24.54L1.51 27.01C1.78 27.52 2.33 27.86 2.98 27.86H8.15L6.83 25.39Z" fill="#A70400"/>
<path d="M24.35 20.3001C24.32 20.2101 24.29 20.1301 24.24 20.0501L22.92 17.5801C22.96 17.6601 23 17.7401 23.03 17.8301C23.09 18.0101 23.12 18.2101 23.1 18.4201L22.8 23.7001V23.8201C22.77 23.9501 22.74 24.0801 22.7 24.2001C22.68 24.2401 22.67 24.2801 22.65 24.3201C22.63 24.3601 22.61 24.4101 22.58 24.4501L23.9 26.9201C23.94 26.8401 23.98 26.7601 24.02 26.6701C24.06 26.5501 24.1 26.4201 24.11 26.2901C24.11 26.2501 24.11 26.2101 24.12 26.1701L24.42 20.8901C24.43 20.6801 24.41 20.4901 24.35 20.3001Z" fill="#A70400"/>
<path d="M14.54 31.85C14.28 31.99 13.98 32.07 13.66 32.07H8.19998C7.54998 32.07 6.99998 31.73 6.72998 31.22L8.04998 33.69C8.31998 34.2 8.86998 34.54 9.51998 34.54H14.98C15.29 34.54 15.59 34.46 15.86 34.32C15.95 34.27 16.04 34.22 16.12 34.15L14.8 31.68C14.72 31.74 14.64 31.79 14.54 31.84V31.85Z" fill="#A70400"/>
<path d="M22.09 25.0001C22.01 25.0601 21.92 25.1201 21.83 25.1701C21.57 25.3101 21.27 25.3901 20.95 25.3901H15.78L15.5 30.3901C15.5 30.3901 15.5 30.4701 15.49 30.5101L16.81 32.9801C16.81 32.9801 16.81 32.9401 16.81 32.9201V32.9001V32.8801C16.81 32.8801 16.81 32.8701 16.81 32.8601L17.09 27.8601H22.26C22.57 27.8601 22.88 27.7801 23.14 27.6401C23.23 27.5901 23.32 27.5401 23.4 27.4701C23.4 27.4701 23.46 27.4201 23.49 27.4001C23.53 27.3701 23.56 27.3401 23.6 27.3001L22.28 24.8301C22.22 24.8901 22.16 24.9501 22.09 25.0001Z" fill="#A70400"/>
<path d="M22.58 24.4401C22.54 24.5101 22.49 24.5801 22.44 24.6501C22.44 24.6501 22.39 24.7101 22.37 24.7401C22.34 24.7701 22.31 24.8001 22.28 24.8301L23.6 27.3001C23.66 27.2401 23.71 27.1801 23.76 27.1201C23.81 27.0501 23.85 26.9801 23.9 26.9101L22.58 24.4401Z" fill="#A70400"/>
<path d="M15.4 30.88C15.37 30.97 15.33 31.05 15.28 31.13L16.6 33.6C16.64 33.52 16.68 33.44 16.72 33.35C16.76 33.23 16.8 33.1 16.81 32.98L15.49 30.51C15.47 30.64 15.44 30.76 15.4 30.88Z" fill="#A70400"/>
<path d="M15.28 31.13C15.24 31.2 15.19 31.27 15.14 31.34C15.14 31.34 15.12 31.37 15.1 31.39C15.1 31.4 15.08 31.41 15.07 31.42C15.04 31.46 15.01 31.49 14.98 31.52L16.3 33.99C16.36 33.93 16.41 33.87 16.46 33.81C16.51 33.74 16.55 33.68 16.59 33.6L15.27 31.13H15.28Z" fill="#A70400"/>
<path d="M14.8 31.69L16.12 34.16C16.19 34.11 16.25 34.05 16.31 33.99L14.99 31.52C14.93 31.58 14.87 31.64 14.8 31.69Z" fill="#A70400"/>
<path d="M14.9 10.03C15.87 10.03 16.61 10.79 16.55 11.72L16.27 16.72H21.44C22.41 16.72 23.15 17.48 23.09 18.41L22.79 23.69C22.74 24.62 21.91 25.38 20.95 25.38H15.78L15.5 30.38C15.45 31.31 14.62 32.07 13.66 32.07H8.20001C7.23001 32.07 6.49001 31.31 6.54001 30.38L6.82001 25.38H1.66001C0.690011 25.38 -0.0499889 24.62 1.10995e-05 23.69L0.300011 18.41C0.350011 17.48 1.18001 16.72 2.15001 16.72H7.32001L7.60001 11.72C7.65001 10.79 8.48001 10.03 9.45001 10.03H14.91H14.9Z" fill="#ED1C24"/>
</g>
<defs>
<linearGradient id="paint0_linear_2804_234" x1="136.24" y1="5.56008" x2="193.12" y2="38.4001" gradientUnits="userSpaceOnUse">
<stop stop-color="#C53030"/>
<stop offset="0.5" stop-color="#E53E3E"/>
<stop offset="1" stop-color="#E53E3E"/>
</linearGradient>
<linearGradient id="paint1_linear_2804_234" x1="143.9" y1="-7.69997" x2="200.78" y2="25.14" gradientUnits="userSpaceOnUse">
<stop stop-color="#C53030"/>
<stop offset="0.5" stop-color="#F56565"/>
<stop offset="1" stop-color="#E53E3E"/>
</linearGradient>
<linearGradient id="paint2_linear_2804_234" x1="10.21" y1="9.86001" x2="135.61" y2="45.01" gradientUnits="userSpaceOnUse">
<stop stop-color="#EDF2F7"/>
<stop offset="0.52" stop-color="#E2E8F0"/>
<stop offset="1" stop-color="#CBD5E0"/>
</linearGradient>
<linearGradient id="paint3_linear_2804_234" x1="12.49" y1="1.71995" x2="137.89" y2="36.8699" gradientUnits="userSpaceOnUse">
<stop stop-color="#EDF2F7"/>
<stop offset="0.52" stop-color="#E2E8F0"/>
<stop offset="1" stop-color="#CBD5E0"/>
</linearGradient>
<linearGradient id="paint4_linear_2804_234" x1="17.33" y1="-15.5401" x2="142.73" y2="19.6099" gradientUnits="userSpaceOnUse">
<stop offset="0.52" stop-color="#E2E8F0"/>
<stop offset="1" stop-color="#CBD5E0"/>
</linearGradient>
<linearGradient id="paint5_linear_2804_234" x1="11.61" y1="4.87996" x2="137.01" y2="40.03" gradientUnits="userSpaceOnUse">
<stop stop-color="#EDF2F7"/>
<stop offset="0.52" stop-color="#E2E8F0"/>
<stop offset="1" stop-color="#CBD5E0"/>
</linearGradient>
<linearGradient id="paint6_linear_2804_234" x1="15.4801" y1="-8.94004" x2="140.88" y2="26.2199" gradientUnits="userSpaceOnUse">
<stop stop-color="#EDF2F7"/>
<stop offset="0.52" stop-color="#E2E8F0"/>
<stop offset="1" stop-color="#CBD5E0"/>
</linearGradient>
<clipPath id="clip0_2804_234">
<rect width="200" height="44.49" fill="white"/>
</clipPath>
</defs>
</svg>
